<mxfile host="65bd71144e">
    <diagram id="LEiARXWG5a8Gi2q3k9um" name="Page-1">
        <mxGraphModel dx="646" dy="665" grid="1" gridSize="10" guides="1" tooltips="1" connect="1" arrows="1" fold="1" page="1" pageScale="1" pageWidth="850" pageHeight="1100" math="0" shadow="0">
            <root>
                <mxCell id="0"/>
                <mxCell id="1" parent="0"/>
                <mxCell id="2" value="" style="shape=umlLifeline;participant=umlActor;perimeter=lifelinePerimeter;whiteSpace=wrap;html=1;container=1;collapsible=0;recursiveResize=0;verticalAlign=top;spacingTop=36;outlineConnect=0;size=80;" parent="1" vertex="1">
                    <mxGeometry x="65" y="100" width="40" height="700" as="geometry"/>
                </mxCell>
                <mxCell id="3" value="&lt;font style=&quot;font-size: 14px;&quot;&gt;:InstapaySystem&lt;/font&gt;" style="shape=umlLifeline;perimeter=lifelinePerimeter;whiteSpace=wrap;html=1;container=1;collapsible=0;recursiveResize=0;outlineConnect=0;size=50;" parent="1" vertex="1">
                    <mxGeometry x="175" y="110" width="120" height="690" as="geometry"/>
                </mxCell>
                <mxCell id="4" value="" style="html=1;points=[];perimeter=orthogonalPerimeter;" parent="3" vertex="1">
                    <mxGeometry x="50" y="80" width="20" height="590" as="geometry"/>
                </mxCell>
                <mxCell id="24" value="" style="html=1;points=[];perimeter=orthogonalPerimeter;fontSize=14;" parent="3" vertex="1">
                    <mxGeometry x="60" y="532.43" width="20" height="47.57" as="geometry"/>
                </mxCell>
                <mxCell id="25" value="homeMenu()" style="edgeStyle=orthogonalEdgeStyle;html=1;align=left;spacingLeft=2;endArrow=block;rounded=0;entryX=1;entryY=0;fontSize=14;exitX=1.05;exitY=0.769;exitDx=0;exitDy=0;exitPerimeter=0;" parent="3" target="24" edge="1">
                    <mxGeometry relative="1" as="geometry">
                        <mxPoint x="71" y="509.99999999999994" as="sourcePoint"/>
                        <Array as="points">
                            <mxPoint x="140" y="510.43"/>
                            <mxPoint x="140" y="532.43"/>
                        </Array>
                    </mxGeometry>
                </mxCell>
                <mxCell id="26" value="" style="html=1;points=[];perimeter=orthogonalPerimeter;fontSize=14;" parent="3" vertex="1">
                    <mxGeometry x="60" y="110" width="20" height="47.57" as="geometry"/>
                </mxCell>
                <mxCell id="27" value="homeMenu()" style="edgeStyle=orthogonalEdgeStyle;html=1;align=left;spacingLeft=2;endArrow=block;rounded=0;entryX=1;entryY=0;fontSize=14;exitX=1.056;exitY=0.024;exitDx=0;exitDy=0;exitPerimeter=0;" parent="3" source="4" target="26" edge="1">
                    <mxGeometry relative="1" as="geometry">
                        <mxPoint x="71" y="79.99999999999994" as="sourcePoint"/>
                        <Array as="points">
                            <mxPoint x="71" y="90"/>
                            <mxPoint x="140" y="90"/>
                            <mxPoint x="140" y="110"/>
                        </Array>
                    </mxGeometry>
                </mxCell>
                <mxCell id="5" value="&lt;font style=&quot;font-size: 14px;&quot;&gt;balanceQuery()&lt;/font&gt;" style="html=1;verticalAlign=bottom;startArrow=oval;endArrow=block;startSize=8;" parent="1" source="2" edge="1">
                    <mxGeometry relative="1" as="geometry">
                        <mxPoint x="84.5" y="320" as="sourcePoint"/>
                        <mxPoint x="225" y="320" as="targetPoint"/>
                    </mxGeometry>
                </mxCell>
                <mxCell id="6" value="&lt;font style=&quot;font-size: 14px;&quot;&gt;:MoneyTansferFacility&lt;/font&gt;" style="shape=umlLifeline;perimeter=lifelinePerimeter;whiteSpace=wrap;html=1;container=1;collapsible=0;recursiveResize=0;outlineConnect=0;size=50;" parent="1" vertex="1">
                    <mxGeometry x="625" y="110" width="160" height="690" as="geometry"/>
                </mxCell>
                <mxCell id="10" value="" style="html=1;points=[];perimeter=orthogonalPerimeter;fontSize=14;" parent="6" vertex="1">
                    <mxGeometry x="70" y="240" width="20" height="150" as="geometry"/>
                </mxCell>
                <mxCell id="11" value="InquireBalance()" style="html=1;verticalAlign=bottom;endArrow=block;fontSize=14;entryX=-0.15;entryY=0.04;entryDx=0;entryDy=0;entryPerimeter=0;" parent="1" source="4" target="10" edge="1">
                    <mxGeometry x="0.3423" relative="1" as="geometry">
                        <mxPoint x="255" y="325" as="sourcePoint"/>
                        <mxPoint x="455" y="324" as="targetPoint"/>
                        <mxPoint as="offset"/>
                    </mxGeometry>
                </mxCell>
                <mxCell id="12" value="success" style="html=1;verticalAlign=bottom;endArrow=open;dashed=1;endSize=8;fontSize=14;entryX=1.056;entryY=0.492;entryDx=0;entryDy=0;entryPerimeter=0;exitX=-0.032;exitY=0.861;exitDx=0;exitDy=0;exitPerimeter=0;" parent="1" source="10" target="4" edge="1">
                    <mxGeometry x="-0.3336" relative="1" as="geometry">
                        <mxPoint x="315" y="396" as="targetPoint"/>
                        <Array as="points"/>
                        <mxPoint x="-1" as="offset"/>
                    </mxGeometry>
                </mxCell>
                <mxCell id="17" value="&lt;font style=&quot;font-size: 14px;&quot;&gt;:Presenter&lt;br&gt;&lt;/font&gt;" style="shape=umlLifeline;perimeter=lifelinePerimeter;whiteSpace=wrap;html=1;container=1;collapsible=0;recursiveResize=0;outlineConnect=0;size=50;" parent="1" vertex="1">
                    <mxGeometry x="405" y="110" width="120" height="690" as="geometry"/>
                </mxCell>
                <mxCell id="18" value="" style="html=1;points=[];perimeter=orthogonalPerimeter;" parent="17" vertex="1">
                    <mxGeometry x="50" y="130" width="20" height="50" as="geometry"/>
                </mxCell>
                <mxCell id="21" value="" style="html=1;points=[];perimeter=orthogonalPerimeter;fontSize=14;" parent="17" vertex="1">
                    <mxGeometry x="50" y="410" width="20" height="70" as="geometry"/>
                </mxCell>
                <mxCell id="28" value="" style="html=1;points=[];perimeter=orthogonalPerimeter;" parent="17" vertex="1">
                    <mxGeometry x="50" y="560" width="20" height="50" as="geometry"/>
                </mxCell>
                <mxCell id="29" value="promptUserOperations()" style="html=1;verticalAlign=bottom;startArrow=circle;startFill=1;endArrow=open;startSize=6;endSize=8;fontSize=14;entryX=-0.091;entryY=0.2;entryDx=0;entryDy=0;entryPerimeter=0;" parent="17" target="28" edge="1">
                    <mxGeometry width="80" relative="1" as="geometry">
                        <mxPoint x="-150" y="570" as="sourcePoint"/>
                        <mxPoint y="537" as="targetPoint"/>
                    </mxGeometry>
                </mxCell>
                <mxCell id="30" value="UserOperattion" style="html=1;verticalAlign=bottom;endArrow=open;dashed=1;endSize=8;fontSize=14;exitX=-0.032;exitY=0.818;exitDx=0;exitDy=0;exitPerimeter=0;" parent="17" source="28" edge="1">
                    <mxGeometry x="0.5717" relative="1" as="geometry">
                        <mxPoint x="-70" y="790" as="sourcePoint"/>
                        <mxPoint x="-320.67647058823536" y="600.9" as="targetPoint"/>
                        <mxPoint x="-1" as="offset"/>
                    </mxGeometry>
                </mxCell>
                <mxCell id="19" value="promptUserOperations()" style="html=1;verticalAlign=bottom;startArrow=circle;startFill=1;endArrow=open;startSize=6;endSize=8;fontSize=14;entryX=-0.091;entryY=0.2;entryDx=0;entryDy=0;entryPerimeter=0;" parent="1" target="18" edge="1">
                    <mxGeometry width="80" relative="1" as="geometry">
                        <mxPoint x="255" y="250" as="sourcePoint"/>
                        <mxPoint x="405" y="217" as="targetPoint"/>
                    </mxGeometry>
                </mxCell>
                <mxCell id="20" value="UserOperattion" style="html=1;verticalAlign=bottom;endArrow=open;dashed=1;endSize=8;fontSize=14;exitX=-0.032;exitY=0.818;exitDx=0;exitDy=0;exitPerimeter=0;" parent="1" source="18" target="2" edge="1">
                    <mxGeometry x="0.5717" relative="1" as="geometry">
                        <mxPoint x="335" y="470" as="sourcePoint"/>
                        <mxPoint x="255" y="470" as="targetPoint"/>
                        <mxPoint x="-1" as="offset"/>
                    </mxGeometry>
                </mxCell>
                <mxCell id="23" value="print balance" style="html=1;verticalAlign=bottom;endArrow=open;dashed=1;endSize=8;exitX=0;exitY=0.95;fontSize=14;" parent="1" source="21" edge="1">
                    <mxGeometry x="0.6187" relative="1" as="geometry">
                        <mxPoint x="84.32352941176464" y="586.5000000000002" as="targetPoint"/>
                        <mxPoint as="offset"/>
                    </mxGeometry>
                </mxCell>
                <mxCell id="22" value="displayBalance()" style="html=1;verticalAlign=bottom;endArrow=block;entryX=-0.268;entryY=0.106;fontSize=14;entryDx=0;entryDy=0;entryPerimeter=0;" parent="1" target="21" edge="1">
                    <mxGeometry x="-0.0352" relative="1" as="geometry">
                        <mxPoint x="245" y="527" as="sourcePoint"/>
                        <mxPoint as="offset"/>
                    </mxGeometry>
                </mxCell>
            </root>
        </mxGraphModel>
    </diagram>
</mxfile>